<svg width="246" height="110" viewBox="0 0 246 110" fill="none" xmlns="http://www.w3.org/2000/svg">
<g id="logo">
<g id="logo_2">
<g id="fichua">
<g id="bg" clip-path="url(#clip0_2_6)">
<path id="Fichua" d="M12.968 65H23.912V46.824H37.608V38.312H23.912V28.84H42.216V20.072H12.968V65ZM47.968 65H58.912V29.288H47.968V65ZM53.472 25.576C57.312 25.576 59.936 22.952 59.936 19.688C59.936 16.36 57.312 13.736 53.472 13.736C49.568 13.736 46.944 16.36 46.944 19.688C46.944 22.952 49.568 25.576 53.472 25.576ZM64.667 47.144C64.667 58.472 72.091 65.512 82.587 65.512C91.547 65.512 97.883 60.328 99.739 52.072H88.091C87.131 54.696 85.403 56.168 82.395 56.168C78.491 56.168 75.803 53.096 75.803 47.144C75.803 41.192 78.491 38.12 82.395 38.12C85.403 38.12 87.195 39.72 88.091 42.216H99.739C97.883 33.704 91.547 28.776 82.587 28.776C72.091 28.776 64.667 35.88 64.667 47.144ZM105.593 65H116.537V45.608C116.537 40.744 119.225 38.056 123.385 38.056C127.545 38.056 130.233 40.744 130.233 45.608V65H141.113V44.136C141.113 34.536 135.673 28.904 127.545 28.904C122.617 28.904 118.713 31.016 116.537 34.088V17.64H105.593V65ZM183.982 29.288H173.038V48.68C173.038 53.544 170.35 56.232 166.126 56.232C162.03 56.232 159.278 53.544 159.278 48.68V29.288H148.398V50.152C148.398 59.688 153.966 65.384 162.222 65.384C167.022 65.384 170.862 63.208 173.038 60.136V65H183.982V29.288ZM189.667 47.08C189.667 58.344 196.643 65.512 205.347 65.512C210.659 65.512 214.435 63.08 216.419 59.944V65H227.363V29.288H216.419V34.344C214.499 31.208 210.723 28.776 205.411 28.776C196.643 28.776 189.667 35.816 189.667 47.08ZM216.419 47.144C216.419 52.84 212.771 55.976 208.611 55.976C204.515 55.976 200.803 52.776 200.803 47.08C200.803 41.384 204.515 38.312 208.611 38.312C212.771 38.312 216.419 41.448 216.419 47.144Z" fill="#027BCE"/>
</g>
</g>
<g id="store">
<g id="bg_2" clip-path="url(#clip1_2_6)">
<path id="Store" d="M33.816 95.2532C33.816 82.7732 15.384 88.7252 15.384 79.0292C15.384 75.1412 18.648 72.9812 22.584 73.0292C27.24 73.0772 29.496 75.9572 29.88 78.3092H33.528C32.952 73.7012 29.112 70.1492 22.728 70.1492C16.248 70.1492 11.976 73.9412 11.976 79.1252C11.976 91.7492 30.408 85.5092 30.408 95.3972C30.408 98.8532 27.672 101.589 23.016 101.589C17.592 101.589 15.528 98.2292 15.24 95.4452H11.688C11.88 100.581 16.296 104.421 23.016 104.421C30.12 104.421 33.816 99.8132 33.816 95.2532ZM41.2688 96.9812C41.2688 102.213 43.7168 104.085 48.2768 104.085H51.8768V101.205H48.8047C45.7808 101.205 44.6768 100.197 44.6768 96.9812V80.7092H51.8768V77.8772H44.6768V71.3012H41.2688V77.8772H37.6208V80.7092H41.2688V96.9812ZM82.0901 90.9812C82.0901 82.6292 76.3781 77.4932 68.9861 77.4932C61.6421 77.4932 55.8821 82.6292 55.8821 90.9812C55.8821 99.2852 61.4981 104.469 68.8901 104.469C76.2821 104.469 82.0901 99.2852 82.0901 90.9812ZM59.2901 90.9812C59.2901 83.7812 63.9461 80.4212 68.9381 80.4212C73.9301 80.4212 78.6341 83.7812 78.6341 90.9812C78.6341 98.1812 73.8341 101.541 68.8901 101.541C63.8981 101.541 59.2901 98.1812 59.2901 90.9812ZM91.575 89.4452C91.575 82.8692 95.271 80.9012 99.639 80.9012H100.551V77.3972C96.039 77.3972 93.015 79.3172 91.575 82.5332V77.8772H88.215V104.085H91.575V89.4452ZM116.79 80.3732C121.638 80.3732 126.054 83.4452 125.91 89.5412H107.478C107.862 83.4452 112.038 80.3732 116.79 80.3732ZM128.934 95.7812H125.382C124.422 99.2852 121.398 101.637 116.934 101.637C112.038 101.637 107.766 98.4212 107.478 92.2772H129.222C129.318 91.3652 129.318 90.6932 129.318 89.6372C129.318 82.9652 124.614 77.4932 116.934 77.4932C109.398 77.4932 104.07 82.6292 104.07 90.9812C104.07 99.2852 109.494 104.469 116.934 104.469C123.51 104.469 127.734 100.725 128.934 95.7812Z" fill="#00487C"/>
</g>
</g>
</g>
</g>
<defs>
<clipPath id="clip0_2_6">
<rect width="228" height="60.426" fill="white" transform="translate(9 5)"/>
</clipPath>
<clipPath id="clip1_2_6">
<rect width="167.677" height="47.0852" fill="white" transform="translate(9 57.0852)"/>
</clipPath>
</defs>
</svg>
